<?xml version="1.0" encoding="utf-8"?>
<!-- Generator: Adobe Illustrator 25.2.3, SVG Export Plug-In . SVG Version: 6.00 Build 0)  -->
<svg version="1.1" id="Layer_1" xmlns="http://www.w3.org/2000/svg" xmlns:xlink="http://www.w3.org/1999/xlink" x="0px" y="0px"
	 viewBox="0 0 44.2 44.5" style="enable-background:new 0 0 44.2 44.5;" xml:space="preserve">
<style type="text/css">
	.st0{fill:#FFFFFF;stroke:#FFFFFF;stroke-miterlimit:10;}
</style>
<g id="Group_45" transform="translate(-272.686 -29)">
	<g id="ringing" transform="matrix(0.966, -0.259, 0.259, 0.966, 270.117, 32.63)">
		<g id="Group_42" transform="translate(8.565 0)">
			<path id="Path_88" class="st0" d="M10,12.1c-0.4,0-0.7-0.4-0.7-0.7V8.9c0-0.9-0.5-1.4-1.4-1.4S6.5,8,6.5,8.9c0,0,0,0,0,0.2v2.5
				c0,0.4-0.4,0.7-0.7,0.7S5,11.9,5,11.6V8.9c0-1.6,1.2-2.9,2.9-2.9s2.9,1.2,2.9,2.9v2.5C10.7,11.8,10.6,12.1,10,12.1L10,12.1z"/>
		</g>
		<g id="Group_43" transform="translate(7.334 16.413)">
			<path id="Path_89" class="st0" d="M9.1,24.8c-2.9,0-5.2-2.3-5.2-5.2c0-0.4,0.4-0.7,0.7-0.7s0.7,0.4,0.7,0.7
				c0.2,2,1.8,3.6,3.7,3.6s3.4-1.6,3.6-3.6c0-0.4,0.4-0.7,0.7-0.7c0.4,0,0.7,0.4,0.7,0.7C14.2,22.5,11.9,24.8,9.1,24.8z"/>
		</g>
		<g id="Group_44" transform="translate(2 2.462)">
			<path id="Path_90" class="st0" d="M26.8,34.4h-25c-1.2,0-2.1-1.1-2.1-2.1c0-0.7,0.4-1.2,0.7-1.6c2.3-2,3.6-4.8,3.6-7.8v-4.6
				C4,12.4,8.6,8,14.3,8c5.5,0,10,4.6,10.2,10.2v4.5c0,3,1.2,5.9,3.6,7.8c0.9,0.7,1.1,2.1,0.2,3C28.1,34,27.5,34.4,26.8,34.4
				L26.8,34.4z M14.5,9.4c-4.8,0-8.7,3.9-8.7,8.7v4.5c0,3.4-1.4,6.6-4.1,8.9c-0.4,0.2-0.4,0.7-0.2,1.1c0.2,0.2,0.4,0.2,0.5,0.2h25
				c0.4,0,0.7-0.4,0.7-0.7c0-0.2-0.2-0.4-0.2-0.5c-2.7-2.1-4.1-5.5-4.1-8.9v-4.5C23.2,13.3,19.3,9.4,14.5,9.4L14.5,9.4z"/>
		</g>
	</g>
</g>
</svg>
